<svg width="146" height="202" viewBox="0 0 146 202" fill="none" xmlns="http://www.w3.org/2000/svg">
<g id="Frame 2087325915">
<g id="Ellipse 3255" opacity="0.4" filter="url(#filter0_f_7109_11511)">
<ellipse cx="30.7026" cy="86.1875" rx="14.7482" ry="15.1875" fill="#27BEC0"/>
</g>
<g id="Ellipse 3256" filter="url(#filter1_f_7109_11511)">
<ellipse cx="30.7027" cy="82.25" rx="10.9246" ry="11.25" fill="#27BEC0"/>
</g>
<g id="Group 2085662915">
<g id="Vector 2899">
<path d="M23.1111 71.9122L16 80.5277L23.1111 83.2015L27.2593 73.1006L23.1111 71.9122Z" fill="#27BEC0"/>
<path d="M27.2593 73.1006L23.1111 83.2015H40.8889L36.7407 73.1006H27.2593Z" fill="#27BEC0"/>
<path d="M23.1111 83.2015L32 98.3529L40.8889 83.2015H23.1111Z" fill="#27BEC0"/>
<path d="M16 80.5277L32 98.3529L23.1111 83.2015L16 80.5277Z" fill="#27BEC0"/>
<path d="M32 98.3529L48 80.5277L40.8889 83.2015L32 98.3529Z" fill="#27BEC0"/>
<path d="M48 80.5277L40.8889 71.9122L36.7407 73.1006L40.8889 83.2015L48 80.5277Z" fill="#27BEC0"/>
<path d="M23.1111 71.9122L27.2593 73.1006H36.7407L40.8889 71.9122L32 71L23.1111 71.9122Z" fill="#27BEC0"/>
</g>
<g id="Vector 2901">
<path d="M23.1111 71.9122L16 80.5277L23.1111 83.2015L27.2593 73.1006L23.1111 71.9122Z" fill="url(#paint0_linear_7109_11511)" style="mix-blend-mode:soft-light"/>
<path d="M27.2593 73.1006L23.1111 83.2015H40.8889L36.7407 73.1006H27.2593Z" fill="url(#paint1_linear_7109_11511)" style="mix-blend-mode:plus-lighter"/>
<path d="M23.1111 83.2015L32 98.3529L40.8889 83.2015H23.1111Z" fill="url(#paint2_linear_7109_11511)" style="mix-blend-mode:overlay"/>
<path d="M16 80.5277L32 98.3529L23.1111 83.2015L16 80.5277Z" fill="url(#paint3_linear_7109_11511)" style="mix-blend-mode:soft-light"/>
<path d="M32 98.3529L48 80.5277L40.8889 83.2015L32 98.3529Z" fill="url(#paint4_linear_7109_11511)" style="mix-blend-mode:overlay"/>
<path d="M48 80.5277L40.8889 71.9122L36.7407 73.1006L40.8889 83.2015L48 80.5277Z" fill="url(#paint5_linear_7109_11511)" style="mix-blend-mode:soft-light"/>
<path d="M23.1111 71.9122L27.2593 73.1006H36.7407L40.8889 71.9122L32 71L23.1111 71.9122Z" fill="url(#paint6_linear_7109_11511)" style="mix-blend-mode:soft-light"/>
</g>
</g>
<g id="Group 2085662916" filter="url(#filter2_f_7109_11511)">
<mask id="mask0_7109_11511" style="mask-type:alpha" maskUnits="userSpaceOnUse" x="13" y="104" width="35" height="33">
<g id="Vector 2899_2">
<path d="M21.0931 135.562L13.4054 125.522L21.0931 122.406L25.5776 134.177L21.0931 135.562Z" fill="url(#paint7_linear_7109_11511)" fill-opacity="0.17"/>
<path d="M25.5776 134.177L21.0931 122.406H40.3123L35.8278 134.177H25.5776Z" fill="url(#paint8_linear_7109_11511)" fill-opacity="0.17"/>
<path d="M21.0931 122.406L30.7027 104.75L40.3123 122.406H21.0931Z" fill="url(#paint9_linear_7109_11511)" fill-opacity="0.17"/>
<path d="M13.4054 125.522L30.7027 104.75L21.0931 122.406L13.4054 125.522Z" fill="url(#paint10_linear_7109_11511)" fill-opacity="0.17"/>
<path d="M30.7027 104.75L48 125.522L40.3123 122.406L30.7027 104.75Z" fill="url(#paint11_linear_7109_11511)" fill-opacity="0.17"/>
<path d="M48 125.522L40.3123 135.562L35.8278 134.177L40.3123 122.406L48 125.522Z" fill="url(#paint12_linear_7109_11511)" fill-opacity="0.17"/>
<path d="M21.0931 135.562L25.5776 134.177H35.8278L40.3123 135.562L30.7027 136.625L21.0931 135.562Z" fill="url(#paint13_linear_7109_11511)" fill-opacity="0.17"/>
</g>
</mask>
<g mask="url(#mask0_7109_11511)">
<g id="Vector 2902">
<path d="M21.0931 135.562L13.4054 125.522L21.0931 122.406L25.5776 134.177L21.0931 135.562Z" fill="#27BEC0"/>
<path d="M25.5776 134.177L21.0931 122.406H40.3123L35.8278 134.177H25.5776Z" fill="#27BEC0"/>
<path d="M21.0931 122.406L30.7027 104.75L40.3123 122.406H21.0931Z" fill="#27BEC0"/>
<path d="M13.4054 125.522L30.7027 104.75L21.0931 122.406L13.4054 125.522Z" fill="#27BEC0"/>
<path d="M30.7027 104.75L48 125.522L40.3123 122.406L30.7027 104.75Z" fill="#27BEC0"/>
<path d="M48 125.522L40.3123 135.562L35.8278 134.177L40.3123 122.406L48 125.522Z" fill="#27BEC0"/>
<path d="M21.0931 135.562L25.5776 134.177H35.8278L40.3123 135.562L30.7027 136.625L21.0931 135.562Z" fill="#27BEC0"/>
</g>
<g id="Vector 2901_2">
<path d="M21.0931 135.562L13.4054 125.522L21.0931 122.406L25.5776 134.177L21.0931 135.562Z" fill="url(#paint14_linear_7109_11511)" style="mix-blend-mode:soft-light"/>
<path d="M25.5776 134.177L21.0931 122.406H40.3123L35.8278 134.177H25.5776Z" fill="url(#paint15_linear_7109_11511)" style="mix-blend-mode:plus-lighter"/>
<path d="M21.0931 122.406L30.7027 104.75L40.3123 122.406H21.0931Z" fill="url(#paint16_linear_7109_11511)" style="mix-blend-mode:overlay"/>
<path d="M13.4054 125.522L30.7027 104.75L21.0931 122.406L13.4054 125.522Z" fill="url(#paint17_linear_7109_11511)" style="mix-blend-mode:soft-light"/>
<path d="M30.7027 104.75L48 125.522L40.3123 122.406L30.7027 104.75Z" fill="url(#paint18_linear_7109_11511)" style="mix-blend-mode:overlay"/>
<path d="M48 125.522L40.3123 135.562L35.8278 134.177L40.3123 122.406L48 125.522Z" fill="url(#paint19_linear_7109_11511)" style="mix-blend-mode:soft-light"/>
<path d="M21.0931 135.562L25.5776 134.177H35.8278L40.3123 135.562L30.7027 136.625L21.0931 135.562Z" fill="url(#paint20_linear_7109_11511)" style="mix-blend-mode:soft-light"/>
</g>
</g>
</g>
<g id="Group 1316" style="mix-blend-mode:plus-lighter" opacity="0.5">
<ellipse id="Ellipse 639" opacity="0.2" cx="27.4479" cy="50.7186" rx="0.151609" ry="0.156125" fill="white"/>
</g>
</g>
<defs>
<filter id="filter0_f_7109_11511" x="-84.0456" y="-29" width="229.496" height="230.375" filterUnits="userSpaceOnUse" color-interpolation-filters="sRGB">
<feFlood flood-opacity="0" result="BackgroundImageFix"/>
<feBlend mode="normal" in="SourceGraphic" in2="BackgroundImageFix" result="shape"/>
<feGaussianBlur stdDeviation="50" result="effect1_foregroundBlur_7109_11511"/>
</filter>
<filter id="filter1_f_7109_11511" x="-50.2219" y="1" width="161.849" height="162.5" filterUnits="userSpaceOnUse" color-interpolation-filters="sRGB">
<feFlood flood-opacity="0" result="BackgroundImageFix"/>
<feBlend mode="normal" in="SourceGraphic" in2="BackgroundImageFix" result="shape"/>
<feGaussianBlur stdDeviation="35" result="effect1_foregroundBlur_7109_11511"/>
</filter>
<filter id="filter2_f_7109_11511" x="3.1054" y="94.45" width="55.1946" height="52.475" filterUnits="userSpaceOnUse" color-interpolation-filters="sRGB">
<feFlood flood-opacity="0" result="BackgroundImageFix"/>
<feBlend mode="normal" in="SourceGraphic" in2="BackgroundImageFix" result="shape"/>
<feGaussianBlur stdDeviation="5.15" result="effect1_foregroundBlur_7109_11511"/>
</filter>
<linearGradient id="paint0_linear_7109_11511" x1="27.2" y1="73.0917" x2="23.0146" y2="83.078" gradientUnits="userSpaceOnUse">
<stop stop-color="#494949"/>
<stop offset="1" stop-color="#E9E9E9"/>
</linearGradient>
<linearGradient id="paint1_linear_7109_11511" x1="32" y1="72.7839" x2="32" y2="83.1899" gradientUnits="userSpaceOnUse">
<stop stop-color="white" stop-opacity="0.8"/>
<stop offset="1" stop-color="white" stop-opacity="0"/>
</linearGradient>
<linearGradient id="paint2_linear_7109_11511" x1="32" y1="83.1899" x2="32" y2="98.3529" gradientUnits="userSpaceOnUse">
<stop stop-color="#4C4C4C"/>
<stop offset="1" stop-color="#B8B8B8"/>
</linearGradient>
<linearGradient id="paint3_linear_7109_11511" x1="23.1111" y1="83.1899" x2="32.0454" y2="98.3262" gradientUnits="userSpaceOnUse">
<stop stop-color="#565656"/>
<stop offset="1" stop-color="#FAFAFA"/>
</linearGradient>
<linearGradient id="paint4_linear_7109_11511" x1="41.1789" y1="83.3088" x2="31.9721" y2="98.3358" gradientUnits="userSpaceOnUse">
<stop stop-color="#323232"/>
<stop offset="1" stop-color="#9A9A9A"/>
</linearGradient>
<linearGradient id="paint5_linear_7109_11511" x1="36.4444" y1="72.4866" x2="40.9149" y2="83.179" gradientUnits="userSpaceOnUse">
<stop stop-color="#494949"/>
<stop offset="1" stop-color="#999999"/>
</linearGradient>
<linearGradient id="paint6_linear_7109_11511" x1="32" y1="71.3181" x2="32" y2="73.0812" gradientUnits="userSpaceOnUse">
<stop stop-color="#7C7C7C"/>
<stop offset="1" stop-color="white"/>
</linearGradient>
<linearGradient id="paint7_linear_7109_11511" x1="30.7027" y1="116.375" x2="30.7027" y2="104.75" gradientUnits="userSpaceOnUse">
<stop stop-color="white" stop-opacity="0"/>
<stop offset="1" stop-color="white"/>
</linearGradient>
<linearGradient id="paint8_linear_7109_11511" x1="30.7027" y1="116.375" x2="30.7027" y2="104.75" gradientUnits="userSpaceOnUse">
<stop stop-color="white" stop-opacity="0"/>
<stop offset="1" stop-color="white"/>
</linearGradient>
<linearGradient id="paint9_linear_7109_11511" x1="30.7027" y1="116.375" x2="30.7027" y2="104.75" gradientUnits="userSpaceOnUse">
<stop stop-color="white" stop-opacity="0"/>
<stop offset="1" stop-color="white"/>
</linearGradient>
<linearGradient id="paint10_linear_7109_11511" x1="30.7027" y1="116.375" x2="30.7027" y2="104.75" gradientUnits="userSpaceOnUse">
<stop stop-color="white" stop-opacity="0"/>
<stop offset="1" stop-color="white"/>
</linearGradient>
<linearGradient id="paint11_linear_7109_11511" x1="30.7027" y1="116.375" x2="30.7027" y2="104.75" gradientUnits="userSpaceOnUse">
<stop stop-color="white" stop-opacity="0"/>
<stop offset="1" stop-color="white"/>
</linearGradient>
<linearGradient id="paint12_linear_7109_11511" x1="30.7027" y1="116.375" x2="30.7027" y2="104.75" gradientUnits="userSpaceOnUse">
<stop stop-color="white" stop-opacity="0"/>
<stop offset="1" stop-color="white"/>
</linearGradient>
<linearGradient id="paint13_linear_7109_11511" x1="30.7027" y1="116.375" x2="30.7027" y2="104.75" gradientUnits="userSpaceOnUse">
<stop stop-color="white" stop-opacity="0"/>
<stop offset="1" stop-color="white"/>
</linearGradient>
<linearGradient id="paint14_linear_7109_11511" x1="25.5135" y1="134.188" x2="20.3803" y2="122.825" gradientUnits="userSpaceOnUse">
<stop stop-color="#494949"/>
<stop offset="1" stop-color="#E9E9E9"/>
</linearGradient>
<linearGradient id="paint15_linear_7109_11511" x1="30.7027" y1="134.546" x2="30.7027" y2="122.42" gradientUnits="userSpaceOnUse">
<stop stop-color="white" stop-opacity="0.8"/>
<stop offset="1" stop-color="white" stop-opacity="0"/>
</linearGradient>
<linearGradient id="paint16_linear_7109_11511" x1="30.7027" y1="122.42" x2="30.7027" y2="104.75" gradientUnits="userSpaceOnUse">
<stop stop-color="#4C4C4C"/>
<stop offset="1" stop-color="#B8B8B8"/>
</linearGradient>
<linearGradient id="paint17_linear_7109_11511" x1="21.0931" y1="122.42" x2="31.865" y2="105.49" gradientUnits="userSpaceOnUse">
<stop stop-color="#565656"/>
<stop offset="1" stop-color="#FAFAFA"/>
</linearGradient>
<linearGradient id="paint18_linear_7109_11511" x1="40.6259" y1="122.281" x2="29.5503" y2="105.511" gradientUnits="userSpaceOnUse">
<stop stop-color="#323232"/>
<stop offset="1" stop-color="#9A9A9A"/>
</linearGradient>
<linearGradient id="paint19_linear_7109_11511" x1="35.5075" y1="134.893" x2="40.9909" y2="122.726" gradientUnits="userSpaceOnUse">
<stop stop-color="#494949"/>
<stop offset="1" stop-color="#999999"/>
</linearGradient>
<linearGradient id="paint20_linear_7109_11511" x1="30.7027" y1="136.254" x2="30.7027" y2="134.2" gradientUnits="userSpaceOnUse">
<stop stop-color="#7C7C7C"/>
<stop offset="1" stop-color="white"/>
</linearGradient>
</defs>
</svg>
